<!--
  Simple SVG icon for PWA manifest.
  You can replace this with proper PNG icons later (192x192, 512x512, etc).
-->
<svg xmlns="http://www.w3.org/2000/svg" viewBox="0 0 512 512">
  <defs>
    <linearGradient id="g" x1="0" x2="1" y1="0" y2="1">
      <stop offset="0" stop-color="#0ea5e9" />
      <stop offset="1" stop-color="#0369a1" />
    </linearGradient>
  </defs>
  <rect x="64" y="64" width="384" height="384" rx="96" fill="url(#g)" />
  <path
    d="M180 300c0-58 38-104 92-104 39 0 67 16 86 44l-36 22c-10-16-26-26-50-26-30 0-52 25-52 64s22 64 52 64c24 0 40-10 50-26l36 22c-19 28-47 44-86 44-54 0-92-46-92-104z"
    fill="#fff"
  />
</svg>


